<svg xmlns="http://www.w3.org/2000/svg" viewBox="0 0 64 64" role="img">
  <circle cx="32" cy="32" r="32" fill="#25D366"/>
  <path fill="#fff" d="M45.8 18.1A19.3 19.3 0 0 0 15.4 41.4l-2.7 9.9 10.1-2.6a19.3 19.3 0 0 0 9.2 2.3h.1A19.3 19.3 0 0 0 45.8 18.1ZM32.1 47.8H32a16 16 0 0 1-8.2-2.2l-.6-.3-6 1.6 1.6-5.9-.4-.6a16.1 16.1 0 1 1 13.7 7.4Zm8.8-12c-.5-.2-2.8-1.4-3.3-1.6-.4-.2-.8-.2-1.1.3-.3.5-1.3 1.6-1.6 1.9-.3.3-.6.4-1.1.1-.5-.2-2-.7-3.8-2.3a14.3 14.3 0 0 1-2.6-3.2c-.3-.5 0-.7.2-1 .2-.2.5-.6.7-.8.2-.3.3-.5.5-.8.2-.3.1-.6 0-.8-.1-.2-1.1-2.7-1.5-3.7-.4-1-.8-.8-1.1-.8h-1c-.4 0-.9.1-1.4.6-.5.5-1.8 1.8-1.8 4.3s1.8 5 2.1 5.3c.2.3 3.6 5.5 8.7 7.7 1.2.5 2.2.8 2.9 1.1 1.2.4 2.3.4 3.2.2 1-.2 2.8-1.2 3.2-2.3.4-1.1.4-2.1.3-2.3-.2-.3-.5-.4-1-.6Z"/>
</svg>
